# xmcd
# Copyright (C) 1995-1998 Ti Kan
#
# Track frame offsets:
#       150
#       10746
#       20748
#       29757
#       38071
#       48153
#       58497
#       70107
#       78819
#       88303
#       100747
#       109637
#       122975
#       132679
#
# Disc length: 1908 seconds
#
# Revision: 0
# Processed by: cddbd v1.5.2PL0 Copyright (c) Steve Scherf et al.
# Submitted via: CD-Import v1.0
#
DISCID=c107720e
DTITLE=Adam Green - Minor Love
DYEAR=2010
DGENRE=
TTITLE0=Breaking Locks
TTITLE1=Give Them A Token
TTITLE2=Buddy Bradley
TTITLE3=Goblin
TTITLE4=Bathing Birds
TTITLE5=What Makes Him Act So Bad
TTITLE6=Stadium Soul
TTITLE7=Cigarette Burns Forever
TTITLE8=Boss Inside
TTITLE9=Castles And Tassels
TTITLE10=Oh Shucks
TTITLE11=Don't Call Me Uncle
TTITLE12=Lockout
TTITLE13=You Blacken My Stay
EXTD=
EXTT0=
EXTT1=
EXTT2=
EXTT3=
EXTT4=
EXTT5=
EXTT6=
EXTT7=
EXTT8=
EXTT9=
EXTT10=
EXTT11=
EXTT12=
EXTT13=
PLAYORDER=
